<?xml version="1.0" encoding="UTF-8"?>
<svg id="Layer_1" data-name="Layer 1" xmlns="http://www.w3.org/2000/svg" xmlns:xlink="http://www.w3.org/1999/xlink" viewBox="0 0 381.96 110.02">
  <defs>
    <style>
      .cls-1 {
        fill: #335177;
      }

      .cls-2 {
        fill: #001c40;
      }

      .cls-3 {
        fill: #ccd4dd;
      }

      .cls-4 {
        fill: #99a8bb;
      }

      .cls-5 {
        fill: #667d99;
      }

      .cls-6 {
        fill: #002655;
      }

      .cls-7 {
        fill: url(#linear-gradient);
      }
    </style>
    <linearGradient id="linear-gradient" x1="273.43" y1="124.7" x2="187.78" y2="-23.65" gradientUnits="userSpaceOnUse">
      <stop offset="0" stop-color="#001c40"/>
      <stop offset=".15" stop-color="#072348"/>
      <stop offset=".4" stop-color="#1a395f"/>
      <stop offset=".7" stop-color="#3a5b83"/>
      <stop offset="1" stop-color="#5f84af"/>
    </linearGradient>
  </defs>
  <g>
    <rect class="cls-3" width="32.9" height="32.9"/>
    <rect class="cls-6" x=".14" y="38.46" width="32.9" height="32.9"/>
    <rect class="cls-1" x=".14" y="77.12" width="32.9" height="32.9"/>
    <rect class="cls-4" x="39.23" y="38.46" width="32.9" height="32.9"/>
    <rect class="cls-2" x="38.8" y="77.12" width="32.9" height="32.9"/>
    <rect class="cls-5" x="77.46" y="77.12" width="32.9" height="32.9"/>
  </g>
  <path class="cls-7" d="M83.06,65.28l11.17-34.91h8.24l11.17,34.91h-7.35l-4.95-18.19c-.53-1.82-1.04-3.71-1.53-5.68-.49-1.96-1-3.87-1.53-5.72h-.19c-.44,1.88-.92,3.8-1.44,5.75-.52,1.95-1.03,3.83-1.53,5.65l-4.99,18.19h-7.07ZM89.99,56.32v-5.42h16.58v5.42h-16.58ZM117.76,65.28v-22.4h4.8l.44,3h.12c.93-.96,1.95-1.79,3.04-2.5,1.09-.71,2.37-1.06,3.84-1.06,1.6,0,2.89.34,3.86,1.02s1.73,1.65,2.26,2.9c1.07-1.09,2.17-2.02,3.3-2.78,1.13-.76,2.42-1.14,3.86-1.14,2.4,0,4.15.79,5.26,2.38,1.11,1.59,1.66,3.79,1.66,6.62v13.96h-5.84v-13.24c0-1.73-.25-2.95-.76-3.64-.51-.69-1.29-1.04-2.36-1.04-.64,0-1.31.21-2.02.62-.71.41-1.47,1.05-2.3,1.9v15.4h-5.88v-13.24c0-1.73-.25-2.95-.76-3.64-.51-.69-1.29-1.04-2.36-1.04-.61,0-1.29.21-2.02.62-.73.41-1.49,1.05-2.26,1.9v15.4h-5.88ZM160.79,65.28c-1.31,0-2.46-.29-3.46-.86-1-.57-1.77-1.37-2.32-2.38-.55-1.01-.82-2.16-.82-3.44,0-2.37,1.03-4.22,3.08-5.54,2.05-1.32,5.32-2.22,9.8-2.7-.03-.75-.16-1.41-.4-1.98-.24-.57-.63-1.03-1.18-1.38-.55-.35-1.29-.52-2.22-.52-1.04,0-2.07.2-3.08.6-1.01.4-2.04.92-3.08,1.56l-2.08-3.92c.88-.56,1.81-1.05,2.8-1.48.99-.43,2.03-.78,3.12-1.06,1.09-.28,2.23-.42,3.4-.42,1.89,0,3.48.37,4.76,1.12s2.24,1.85,2.88,3.32c.64,1.47.96,3.28.96,5.44v13.08h-4.8l-.4-2.4h-.2c-.96.85-2,1.56-3.12,2.12-1.12.56-2.33.84-3.64.84ZM162.75,60.68c.83,0,1.58-.19,2.26-.58.68-.39,1.37-.93,2.06-1.62v-4.48c-1.81.21-3.25.52-4.32.92-1.07.4-1.83.87-2.28,1.42-.45.55-.68,1.15-.68,1.82,0,.88.27,1.52.82,1.92.55.4,1.26.6,2.14.6ZM185.83,65.28c-1.87,0-3.49-.47-4.86-1.4-1.37-.93-2.43-2.28-3.18-4.04-.75-1.76-1.12-3.87-1.12-6.32s.45-4.51,1.34-6.26c.89-1.75,2.06-3.1,3.5-4.06,1.44-.96,2.96-1.44,4.56-1.44,1.25,0,2.31.22,3.18.66.87.44,1.7,1.03,2.5,1.78l-.2-3.52v-7.88h5.88v31.92h-4.8l-.44-2.32h-.16c-.83.8-1.77,1.48-2.84,2.04-1.07.56-2.19.84-3.36.84ZM187.35,60.44c.8,0,1.54-.18,2.22-.54.68-.36,1.34-.95,1.98-1.78v-9.84c-.67-.61-1.35-1.05-2.06-1.3-.71-.25-1.42-.38-2.14-.38-.83,0-1.59.26-2.3.78-.71.52-1.27,1.29-1.7,2.3-.43,1.01-.64,2.27-.64,3.76s.18,2.84.54,3.88.89,1.82,1.58,2.34,1.53.78,2.52.78ZM212.47,65.28c-2.08,0-3.96-.47-5.64-1.4-1.68-.93-3.02-2.28-4.02-4.04-1-1.76-1.5-3.87-1.5-6.32,0-1.81.29-3.44.86-4.88.57-1.44,1.36-2.67,2.36-3.7,1-1.03,2.12-1.81,3.36-2.36,1.24-.55,2.53-.82,3.86-.82,2.05,0,3.77.46,5.16,1.38,1.39.92,2.43,2.19,3.14,3.8.71,1.61,1.06,3.46,1.06,5.54,0,.53-.03,1.05-.08,1.54-.05.49-.12.89-.2,1.18h-13.8c.16,1.2.52,2.21,1.08,3.04.56.83,1.28,1.45,2.16,1.86s1.88.62,3,.62c.91,0,1.76-.13,2.56-.38.8-.25,1.61-.63,2.44-1.14l2,3.6c-1.09.75-2.32,1.35-3.68,1.8s-2.73.68-4.12.68ZM206.92,51.24h9.16c0-1.49-.34-2.69-1.02-3.58-.68-.89-1.75-1.34-3.22-1.34-.77,0-1.51.18-2.2.54-.69.36-1.28.91-1.76,1.64-.48.73-.8,1.65-.96,2.74ZM231.63,65.28c-2.43,0-4.19-.79-5.28-2.38s-1.64-3.79-1.64-6.62v-13.96h5.84v13.24c0,1.73.25,2.95.76,3.64s1.32,1.04,2.44,1.04c.91,0,1.7-.22,2.38-.66s1.39-1.15,2.14-2.14v-15.12h5.88v22.4h-4.8l-.44-3.24h-.16c-.96,1.15-2,2.07-3.12,2.76-1.12.69-2.45,1.04-4,1.04ZM255.83,65.28c-1.49,0-3.01-.29-4.54-.88-1.53-.59-2.86-1.33-3.98-2.24l2.68-3.72c.99.75,1.97,1.34,2.94,1.78.97.44,1.99.66,3.06.66,1.12,0,1.94-.22,2.46-.66.52-.44.78-1.01.78-1.7,0-.56-.23-1.03-.68-1.42-.45-.39-1.04-.73-1.76-1.04-.72-.31-1.47-.61-2.24-.9-.93-.37-1.86-.83-2.78-1.36-.92-.53-1.69-1.22-2.3-2.06-.61-.84-.92-1.89-.92-3.14,0-1.33.35-2.51,1.04-3.54.69-1.03,1.66-1.83,2.9-2.42,1.24-.59,2.71-.88,4.42-.88s3.07.28,4.34.84c1.27.56,2.35,1.2,3.26,1.92l-2.64,3.56c-.8-.59-1.59-1.05-2.38-1.4-.79-.35-1.59-.52-2.42-.52-1.04,0-1.8.2-2.28.6-.48.4-.72.92-.72,1.56,0,.53.2.98.6,1.34.4.36.95.67,1.64.94.69.27,1.43.55,2.2.84.75.27,1.49.58,2.22.94.73.36,1.41.79,2.02,1.3.61.51,1.1,1.13,1.46,1.86.36.73.54,1.62.54,2.66,0,1.31-.34,2.5-1.02,3.58s-1.68,1.93-3,2.56c-1.32.62-2.95.94-4.9.94ZM270.45,65.28V30.36h10.94c2.26,0,4.29.27,6.09.8,1.8.53,3.23,1.43,4.29,2.69,1.06,1.26,1.58,2.97,1.58,5.14,0,1.07-.19,2.11-.56,3.13-.37,1.02-.89,1.92-1.54,2.71-.66.79-1.46,1.37-2.41,1.74v.19c1.79.44,3.26,1.34,4.42,2.71s1.74,3.21,1.74,5.54-.56,4.25-1.67,5.77-2.63,2.65-4.55,3.39c-1.92.74-4.1,1.11-6.54,1.11h-11.79ZM277.06,44.59h3.88c2.08,0,3.6-.42,4.55-1.25.95-.83,1.43-1.94,1.43-3.32,0-1.54-.49-2.64-1.47-3.3-.98-.66-2.47-.99-4.46-.99h-3.93v8.86ZM277.06,59.9h4.6c2.26,0,3.98-.43,5.16-1.3,1.18-.86,1.76-2.21,1.76-4.03,0-1.7-.59-2.93-1.76-3.7-1.18-.77-2.9-1.15-5.16-1.15h-4.6v10.18ZM299.43,65.28v-22.4h5.88v22.4h-5.88ZM319.99,65.28c-1.87,0-3.62-.47-5.26-1.4-1.64-.93-2.97-2.27-3.98-4.02-1.01-1.75-1.52-3.86-1.52-6.34s.51-4.59,1.52-6.34c1.01-1.75,2.34-3.09,3.98-4.02,1.64-.93,3.39-1.4,5.26-1.4,1.41,0,2.76.27,4.04.8,1.28.53,2.43,1.3,3.44,2.3,1.01,1,1.81,2.23,2.4,3.68.59,1.45.88,3.11.88,4.98,0,2.48-.51,4.59-1.52,6.34s-2.34,3.09-3.98,4.02c-1.64.93-3.39,1.4-5.26,1.4ZM319.99,60.47c1.01,0,1.87-.29,2.58-.86.71-.57,1.24-1.38,1.6-2.42.36-1.04.54-2.27.54-3.68s-.18-2.64-.54-3.68c-.36-1.04-.89-1.85-1.6-2.42-.71-.57-1.57-.86-2.58-.86s-1.87.29-2.58.86c-.71.57-1.24,1.38-1.6,2.42-.36,1.04-.54,2.27-.54,3.68s.18,2.64.54,3.68c.36,1.04.89,1.85,1.6,2.42.71.57,1.57.86,2.58.86ZM353.47,65.28c-1.31,0-2.46-.29-3.46-.86-1-.57-1.77-1.37-2.32-2.38-.55-1.01-.82-2.16-.82-3.44,0-2.37,1.03-4.22,3.08-5.54,2.05-1.32,5.32-2.22,9.8-2.7-.03-.75-.16-1.41-.4-1.98-.24-.57-.63-1.03-1.18-1.38-.55-.35-1.29-.52-2.22-.52-1.04,0-2.07.2-3.08.6-1.01.4-2.04.92-3.08,1.56l-2.08-3.92c.88-.56,1.81-1.05,2.8-1.48.99-.43,2.03-.78,3.12-1.06,1.09-.28,2.23-.42,3.4-.42,1.89,0,3.48.37,4.76,1.12s2.24,1.85,2.88,3.32c.64,1.47.96,3.28.96,5.44v13.08h-4.8l-.4-2.4h-.2c-.96.85-2,1.56-3.12,2.12-1.12.56-2.33.84-3.64.84ZM355.43,60.68c.83,0,1.58-.19,2.26-.58.68-.39,1.37-.93,2.06-1.62v-4.48c-1.81.21-3.25.52-4.32.92-1.07.4-1.83.87-2.28,1.42-.45.55-.68,1.15-.68,1.82,0,.88.27,1.52.82,1.92.55.4,1.26.6,2.14.6ZM370.47,65.28v-22.4h5.88v22.4h-5.88ZM305.31,32.8h-5.88v5.88h5.88v-5.88ZM376.35,32.68h-5.88v5.88h5.88v-5.88ZM339.84,59.4h-5.88v5.88h5.88v-5.88Z"/>
  <g>
    <g>
      <path d="M121.45,92.58l-3.59-6.93h1.61l2.53,5.2h.13l2.53-5.2h1.61l-3.59,6.93h-1.25ZM121.34,96.05v-5.13h1.46v5.13h-1.46Z"/>
      <path d="M128.74,96.2c-1.07,0-1.91-.35-2.5-1.05s-.89-1.69-.89-2.97.3-2.28.89-2.98c.6-.7,1.43-1.05,2.5-1.05s1.92.35,2.51,1.05c.59.7.89,1.69.89,2.98s-.3,2.27-.89,2.97c-.59.7-1.43,1.05-2.51,1.05ZM128.74,94.81c.57,0,1.01-.23,1.32-.69.31-.46.46-1.11.46-1.95s-.16-1.5-.46-1.95c-.31-.46-.75-.68-1.32-.68s-1.01.23-1.32.68c-.31.46-.46,1.11-.46,1.95s.15,1.49.46,1.95.75.69,1.32.69Z"/>
      <path d="M135.8,96.2c-.82,0-1.45-.24-1.89-.73-.45-.49-.67-1.17-.67-2.05v-5.13h1.55v5.13c0,.44.13.79.38,1.03.25.24.61.36,1.07.36.57,0,.99-.18,1.28-.54.29-.36.43-.96.43-1.81l.4,2.09h-.51c-.12.53-.36.93-.72,1.22s-.8.42-1.32.42ZM137.95,93.86v-5.57h1.55v5.13l-1.55.44ZM138.08,96.13l-.13-1.86v-1.36h1.55v1.74l1.07.16v1.25l-2.49.07Z"/>
      <path d="M140.98,96.05v-1.27h5.19v1.27h-5.19ZM141.27,89.56v-1.27h2.59l.15,1.27h-2.74ZM142.71,96.05v-7.76h1.26l.29,2.23v5.54h-1.55ZM144.26,92.71l-.45-2.43h.6c.09-1.43.8-2.14,2.14-2.14.8,0,1.38.23,1.74.69s.54,1.2.54,2.23h-1.54c0-.57-.08-.97-.25-1.22-.17-.25-.44-.37-.82-.37-.66,0-1.15.28-1.48.85-.33.56-.49,1.37-.49,2.41Z"/>
    </g>
    <g>
      <path d="M156.04,96.05v-10.4h1.46v10.4h-1.46ZM156.91,90.94v-.72h3.05v.72h-3.05ZM157.41,90.53v-.67h1.76c.55,0,.98-.12,1.29-.37.31-.25.46-.6.46-1.06s-.16-.79-.48-1.03c-.32-.24-.78-.36-1.37-.36h-1.63l-.18-1.39h1.88c1.05,0,1.87.23,2.45.68.58.46.86,1.11.86,1.95,0,.72-.27,1.27-.82,1.66-.55.39-1.32.58-2.33.58h-1.89ZM157.41,96.05v-1.39h2.2c.64,0,1.15-.15,1.5-.44.36-.29.53-.71.53-1.24s-.19-.97-.56-1.27c-.37-.3-.9-.45-1.58-.45h-2.07l-.18-.67h2.61c1.05,0,1.87.23,2.45.68.58.46.86,1.1.86,1.93,0,.91-.27,1.61-.82,2.11s-1.32.75-2.33.75h-2.62Z"/>
      <path d="M163.58,96.05v-1.27h3.11v1.27h-3.11ZM164.02,89.56v-1.27h4.07v1.27h-4.07ZM167.26,87.06c-.3,0-.55-.11-.77-.32s-.32-.47-.32-.77.11-.56.32-.77c.21-.21.47-.31.77-.31s.56.11.77.31c.21.21.32.47.32.77s-.11.55-.32.77c-.21.21-.47.32-.77.32ZM166.54,96.05v-7.32h1.55v7.32h-1.55ZM167.94,96.05v-1.27h2.53v1.27h-2.53Z"/>
      <path d="M174.41,96.2c-1.07,0-1.91-.35-2.5-1.05s-.89-1.69-.89-2.97.3-2.28.89-2.98c.6-.7,1.43-1.05,2.5-1.05s1.92.35,2.51,1.05c.59.7.89,1.69.89,2.98s-.3,2.27-.89,2.97c-.59.7-1.43,1.05-2.51,1.05ZM174.41,94.81c.57,0,1.01-.23,1.32-.69.31-.46.46-1.11.46-1.95s-.16-1.5-.46-1.95c-.31-.46-.75-.68-1.32-.68s-1.01.23-1.32.68c-.31.46-.46,1.11-.46,1.95s.16,1.49.46,1.95c.31.46.75.69,1.32.69Z"/>
      <path d="M178.57,96.05v-1.27h3.11v1.27h-3.11ZM179.01,89.56v-1.27h4.07v1.27h-4.07ZM182.25,87.06c-.3,0-.55-.11-.76-.32s-.32-.47-.32-.77.11-.56.32-.77c.21-.21.47-.31.76-.31s.56.11.77.31c.21.21.31.47.31.77s-.1.55-.31.77c-.21.21-.47.32-.77.32ZM181.53,96.05v-7.32h1.55v7.32h-1.55ZM182.93,96.05v-1.27h2.53v1.27h-2.53Z"/>
      <path d="M186.37,96.05v-7.76h1.41l.15,1.64v6.12h-1.55ZM191.14,96.05v-5.05c0-.47-.12-.83-.37-1.08s-.59-.38-1.03-.38c-1.22,0-1.83.72-1.83,2.15l-.45-1.99h.6c.04-.52.23-.91.57-1.17.34-.26.83-.38,1.48-.38.82,0,1.46.25,1.9.75s.67,1.2.67,2.11v5.05h-1.55Z"/>
      <path d="M193.48,91.32v-1.27h7.18v1.27h-7.18ZM195.93,96.05v-7.1c0-2.69,1.23-4.03,3.68-4.03.56,0,1.09.05,1.61.15l-.16,1.35c-.31-.04-.58-.07-.81-.08-.23-.02-.46-.02-.68-.02-1.39,0-2.08.85-2.08,2.56v7.18h-1.55Z"/>
      <path d="M205.02,96.2c-1.07,0-1.91-.35-2.5-1.05s-.89-1.69-.89-2.97.3-2.28.89-2.98c.6-.7,1.43-1.05,2.5-1.05s1.92.35,2.51,1.05c.59.7.89,1.69.89,2.98s-.3,2.27-.89,2.97c-.59.7-1.43,1.05-2.51,1.05ZM205.02,94.81c.57,0,1.01-.23,1.32-.69.31-.46.46-1.11.46-1.95s-.16-1.5-.46-1.95c-.31-.46-.75-.68-1.32-.68s-1.01.23-1.32.68c-.31.46-.46,1.11-.46,1.95s.16,1.49.46,1.95c.31.46.75.69,1.32.69Z"/>
      <path d="M208.89,96.05v-1.27h5.19v1.27h-5.19ZM209.18,89.56v-1.27h2.59l.15,1.27h-2.74ZM210.61,96.05v-7.76h1.26l.29,2.23v5.54h-1.55ZM212.17,92.71l-.45-2.43h.6c.09-1.43.8-2.14,2.14-2.14.8,0,1.38.23,1.74.69s.54,1.2.54,2.23h-1.54c0-.57-.08-.97-.25-1.22-.17-.25-.44-.37-.82-.37-.66,0-1.15.28-1.48.85-.33.56-.49,1.37-.49,2.41Z"/>
      <path d="M217.25,96.05v-7.76h1.38l.18,1.64v6.12h-1.55ZM220.17,96.05v-6.08c0-.44-.21-.66-.62-.66-.5,0-.75.35-.75,1.05l-.45-1.11h.5c.06-.74.5-1.11,1.33-1.11.41,0,.72.14.96.42.23.28.35.7.35,1.27v6.23h-1.32ZM222.85,96.05v-5.93c0-.54-.2-.81-.6-.81-.51,0-.76.35-.76,1.05l-.53-1.11h.6c.02-.3.15-.56.36-.78.22-.22.53-.33.94-.33.54,0,.93.14,1.17.43.24.29.37.75.37,1.4v6.08h-1.55Z"/>
      <path d="M227.64,96.2c-.81,0-1.44-.2-1.88-.59s-.67-.94-.67-1.66c0-.82.31-1.45.92-1.89.61-.44,1.48-.66,2.6-.66.46,0,.88.03,1.24.08.36.06.69.14.97.25l-.32,1.05c-.33-.07-.65-.12-.96-.13-.31-.01-.63-.02-.96-.02-1.35,0-2.02.41-2.02,1.23,0,.34.12.61.35.79.23.19.56.28.99.28.48,0,.89-.08,1.21-.25.33-.17.57-.38.73-.64.16-.26.24-.53.24-.8v-.85l.45,1.99h-.62l.25-.23c0,.45-.1.82-.31,1.12-.21.3-.5.53-.88.67-.38.15-.82.22-1.33.22ZM230.38,96.13l-.1-2.3-.21-.64v-2.01c0-.52-.18-.9-.55-1.14-.36-.24-.9-.37-1.62-.39l-1.86-.05.15-1.38,1.57.02c1.28.02,2.24.3,2.86.83.62.53.93,1.31.93,2.34v3.24l1.32.16v1.25l-2.49.07Z"/>
      <path d="M232.36,89.56v-1.27h7.03v1.27h-7.03ZM234.31,92.39v-6.45h1.55v6.45h-1.55ZM237.65,96.2c-1.18,0-2.03-.24-2.55-.73-.52-.49-.79-1.27-.79-2.34v-1.32h1.55v1.25c0,.62.15,1.06.45,1.34.3.28.79.42,1.48.42.24,0,.5-.01.78-.04.27-.03.59-.06.94-.11l.18,1.36c-.34.06-.67.1-1,.13-.32.03-.67.04-1.04.04Z"/>
      <path d="M240.67,96.05v-1.27h3.11v1.27h-3.11ZM241.11,89.56v-1.27h4.07v1.27h-4.07ZM244.35,87.06c-.3,0-.55-.11-.76-.32s-.32-.47-.32-.77.11-.56.32-.77c.21-.21.47-.31.76-.31s.56.11.77.31c.21.21.31.47.31.77s-.1.55-.31.77c-.21.21-.47.32-.77.32ZM243.63,96.05v-7.32h1.55v7.32h-1.55ZM245.03,96.05v-1.27h2.53v1.27h-2.53Z"/>
      <path d="M252.21,96.2c-1.32,0-2.34-.35-3.07-1.04-.72-.7-1.08-1.7-1.08-3s.34-2.26,1.02-2.96c.68-.7,1.65-1.05,2.92-1.05.76,0,1.41.14,1.94.42.54.28.92.68,1.15,1.19l-1.19.9c-.22-.36-.5-.63-.84-.83s-.71-.29-1.12-.29c-.73,0-1.3.22-1.71.66-.41.44-.61,1.07-.61,1.89,0,.88.24,1.56.71,2.03.48.47,1.16.7,2.04.7.36,0,.72-.02,1.08-.05.36-.03.71-.08,1.05-.14l.18,1.36c-.4.09-.81.15-1.24.18-.43.03-.84.04-1.25.04Z"/>
    </g>
    <g>
      <path d="M262.8,96.2c-.81,0-1.44-.2-1.88-.59s-.67-.94-.67-1.66c0-.82.31-1.45.92-1.89.61-.44,1.48-.66,2.6-.66.46,0,.88.03,1.24.08.36.06.69.14.97.25l-.32,1.05c-.33-.07-.65-.12-.96-.13-.31-.01-.63-.02-.96-.02-1.35,0-2.02.41-2.02,1.23,0,.34.12.61.35.79.23.19.56.28.99.28.48,0,.89-.08,1.21-.25.33-.17.57-.38.73-.64.16-.26.24-.53.24-.8v-.85l.45,1.99h-.62l.25-.23c0,.45-.1.82-.31,1.12-.21.3-.5.53-.88.67-.38.15-.82.22-1.33.22ZM265.54,96.13l-.1-2.3-.21-.64v-2.01c0-.52-.18-.9-.55-1.14-.36-.24-.9-.37-1.62-.39l-1.86-.05.15-1.38,1.57.02c1.28.02,2.24.3,2.86.83.62.53.93,1.31.93,2.34v3.24l1.32.16v1.25l-2.49.07Z"/>
      <path d="M271.36,96.2c-1.02,0-1.79-.33-2.31-1-.52-.67-.79-1.65-.79-2.95s.26-2.37.79-3.06c.53-.69,1.29-1.04,2.31-1.04.61,0,1.1.14,1.47.41s.6.65.66,1.14h.6l-.53,2.21c0-.8-.16-1.41-.47-1.82-.31-.42-.78-.62-1.39-.62s-1.1.23-1.42.7-.48,1.16-.48,2.08c0,.87.16,1.53.48,1.97s.8.67,1.42.67,1.07-.21,1.39-.62c.32-.41.47-1.02.47-1.82l.53,2.21h-.67c-.05.49-.25.87-.62,1.14-.36.27-.84.41-1.44.41ZM268.89,99.55l-.07-1.42,2.49-.07c.79-.02,1.36-.24,1.71-.65s.54-1.01.54-1.81v-5.67l.15-1.64h1.41v7.08c0,1.38-.31,2.4-.95,3.06-.63.66-1.63,1.01-3.01,1.05l-2.27.07Z"/>
      <path d="M280.46,96.2c-1.32,0-2.34-.35-3.07-1.04-.72-.7-1.08-1.7-1.08-3s.3-2.26.92-2.96c.61-.7,1.47-1.05,2.58-1.05,1.05,0,1.86.32,2.44.95.57.63.86,1.56.86,2.77,0,.36-.01.69-.04,1h-5.45v-1.19h4.09c0-.7-.17-1.23-.5-1.61-.33-.37-.79-.56-1.38-.56-.66,0-1.17.22-1.53.67-.36.45-.55,1.08-.55,1.9,0,.9.25,1.58.75,2.05.5.47,1.21.7,2.13.7.32,0,.64-.02.95-.05.31-.04.63-.09.95-.15l.19,1.36c-.46.09-.88.14-1.26.17s-.72.04-1.01.04Z"/>
      <path d="M284.31,96.05v-7.76h1.41l.15,1.64v6.12h-1.55ZM289.08,96.05v-5.05c0-.47-.12-.83-.37-1.08s-.59-.38-1.03-.38c-1.22,0-1.83.72-1.83,2.15l-.45-1.99h.6c.04-.52.23-.91.57-1.17.34-.26.83-.38,1.48-.38.82,0,1.46.25,1.9.75s.67,1.2.67,2.11v5.05h-1.55Z"/>
      <path d="M291.34,89.56v-1.27h7.03v1.27h-7.03ZM293.29,92.39v-6.45h1.55v6.45h-1.55ZM296.63,96.2c-1.18,0-2.03-.24-2.55-.73-.52-.49-.79-1.27-.79-2.34v-1.32h1.55v1.25c0,.62.15,1.06.45,1.34.3.28.79.42,1.48.42.24,0,.5-.01.78-.04.27-.03.59-.06.94-.11l.18,1.36c-.34.06-.67.1-1,.13-.32.03-.67.04-1.04.04Z"/>
      <path d="M300.29,99.25l.59-5.05h1.7l-.88,5.05h-1.41Z"/>
    </g>
    <g>
      <path d="M312.92,96.05v-1.27h3.11v1.27h-3.11ZM313.36,89.56v-1.27h4.07v1.27h-4.07ZM316.6,87.06c-.3,0-.55-.11-.76-.32s-.32-.47-.32-.77.11-.56.32-.77c.21-.21.47-.31.76-.31s.56.11.77.31c.21.21.31.47.31.77s-.1.55-.31.77c-.21.21-.47.32-.77.32ZM315.88,96.05v-7.32h1.55v7.32h-1.55ZM317.28,96.05v-1.27h2.53v1.27h-2.53Z"/>
      <path d="M320.72,96.05v-7.76h1.41l.15,1.64v6.12h-1.55ZM325.49,96.05v-5.05c0-.47-.12-.83-.37-1.08s-.59-.38-1.03-.38c-1.22,0-1.83.72-1.83,2.15l-.45-1.99h.6c.04-.52.23-.91.57-1.17.34-.26.83-.38,1.48-.38.82,0,1.46.25,1.9.75s.67,1.2.67,2.11v5.05h-1.55Z"/>
    </g>
    <g>
      <path d="M336.76,96.2c-.59,0-1.09-.02-1.5-.05-.42-.04-.8-.09-1.15-.17l.18-1.41c.51.08.97.14,1.36.18.39.04.77.06,1.12.06.79,0,1.36-.08,1.71-.23.35-.15.53-.4.53-.74,0-.23-.06-.41-.19-.52-.12-.12-.32-.2-.58-.27l-1.79-.45c-.77-.2-1.33-.44-1.69-.72-.36-.29-.54-.73-.54-1.31,0-.85.33-1.46.98-1.85.65-.38,1.7-.57,3.15-.57.38,0,.73.01,1.05.03.33.02.66.06,1,.11l-.16,1.35c-.4-.04-.75-.07-1.05-.08-.3-.02-.6-.02-.89-.02-.87,0-1.5.07-1.89.22-.39.15-.59.39-.59.73,0,.22.08.39.24.49.16.1.41.19.74.27l1.44.35c.82.2,1.41.46,1.79.78.38.33.57.8.57,1.43,0,.83-.31,1.44-.92,1.82-.61.38-1.59.57-2.94.57Z"/>
      <path d="M341.64,96.05v-1.27h3.11v1.27h-3.11ZM342.08,89.56v-1.27h4.07v1.27h-4.07ZM345.33,87.06c-.3,0-.55-.11-.76-.32s-.32-.47-.32-.77.11-.56.32-.77c.21-.21.47-.31.76-.31s.56.11.77.31c.21.21.31.47.31.77s-.1.55-.31.77c-.21.21-.47.32-.77.32ZM344.6,96.05v-7.32h1.55v7.32h-1.55ZM346.01,96.05v-1.27h2.53v1.27h-2.53Z"/>
      <path d="M348.12,86.34v-1.27h2.42v1.27h-2.42ZM352.95,96.2c-.9,0-1.55-.24-1.95-.73s-.6-1.27-.6-2.34v-8.06h1.55v7.98c0,.41.04.75.12,1,.08.26.23.45.46.57.23.12.56.18,1.01.18.41,0,.92-.09,1.55-.28l.18,1.36c-.4.11-.78.19-1.14.23-.36.05-.76.07-1.18.07Z"/>
      <path d="M356.24,96.05v-1.27h3.11v1.27h-3.11ZM356.67,89.56v-1.27h4.07v1.27h-4.07ZM359.92,87.06c-.3,0-.55-.11-.76-.32s-.32-.47-.32-.77.11-.56.32-.77c.21-.21.47-.31.76-.31s.56.11.77.31c.21.21.31.47.31.77s-.1.55-.31.77c-.21.21-.47.32-.77.32ZM359.19,96.05v-7.32h1.55v7.32h-1.55ZM360.6,96.05v-1.27h2.53v1.27h-2.53Z"/>
      <path d="M367.77,96.2c-1.32,0-2.34-.35-3.07-1.04-.72-.7-1.08-1.7-1.08-3s.34-2.26,1.02-2.96c.68-.7,1.65-1.05,2.92-1.05.76,0,1.41.14,1.94.42.54.28.92.68,1.15,1.19l-1.19.9c-.22-.36-.5-.63-.84-.83s-.71-.29-1.12-.29c-.73,0-1.3.22-1.71.66-.41.44-.61,1.07-.61,1.89,0,.88.24,1.56.71,2.03.48.47,1.16.7,2.04.7.36,0,.72-.02,1.08-.05.36-.03.71-.08,1.05-.14l.18,1.36c-.4.09-.81.15-1.24.18-.43.03-.84.04-1.25.04Z"/>
      <path d="M374.68,96.2c-1.07,0-1.91-.35-2.5-1.05s-.89-1.69-.89-2.97.3-2.28.89-2.98c.6-.7,1.43-1.05,2.5-1.05s1.92.35,2.51,1.05c.59.7.89,1.69.89,2.98s-.3,2.27-.89,2.97c-.59.7-1.43,1.05-2.51,1.05ZM374.68,94.81c.57,0,1.01-.23,1.32-.69.31-.46.46-1.11.46-1.95s-.16-1.5-.46-1.95c-.31-.46-.75-.68-1.32-.68s-1.01.23-1.32.68c-.31.46-.46,1.11-.46,1.95s.16,1.49.46,1.95c.31.46.75.69,1.32.69Z"/>
      <path d="M380.88,96.2c-.3,0-.55-.11-.77-.32-.21-.21-.32-.47-.32-.77s.11-.56.32-.77c.21-.21.47-.31.77-.31s.56.11.77.31c.21.21.31.47.31.77s-.11.55-.31.77c-.21.21-.47.32-.77.32Z"/>
    </g>
  </g>
</svg>